<mxfile host="app.diagrams.net" modified="2024-02-14T05:40:20.896Z" agent="Mozilla/5.0 (Windows NT 10.0; Win64; x64) AppleWebKit/537.36 (KHTML, like Gecko) Chrome/119.0.0.0 Safari/537.36" version="23.1.4" etag="zdCidWGGL2l8OpBaIrlO" type="github">
  <diagram name="第 1 页" id="Uh1R_ZAXbZmLYNC23QkL">
    <mxGraphModel>
      <root>
        <mxCell id="0" />
        <mxCell id="1" parent="0" />
      </root>
    </mxGraphModel>
  </diagram>
</mxfile>
